<svg width="137" height="95" viewBox="0 0 137 95" fill="none" xmlns="http://www.w3.org/2000/svg">
<path d="M76.99 33.808C76.822 33.7 76.738 33.544 76.738 33.34C76.738 33.136 76.804 32.95 76.936 32.782C76.888 31.582 76.864 30.316 76.864 28.984C76.936 28.696 77.044 28.486 77.188 28.354C77.344 28.222 77.566 28.138 77.854 28.102C79.438 28.174 81.154 28.21 83.002 28.21C83.458 28.306 83.686 28.504 83.686 28.804C83.686 29.308 83.194 29.602 82.21 29.686C81.946 29.698 81.658 29.704 81.346 29.704H80.176C79.948 29.704 79.318 29.656 78.286 29.56C78.286 31.06 78.31 32.092 78.358 32.656C78.994 32.668 80.218 32.674 82.03 32.674C82.462 32.758 82.678 32.956 82.678 33.268C82.678 33.568 82.504 33.802 82.156 33.97C82.12 33.994 82.054 34.018 81.958 34.042L78.844 33.988C78.652 33.988 78.496 34 78.376 34.024L78.448 37.12C78.448 37.816 78.43 38.314 78.394 38.614L82.57 38.56C82.954 38.62 83.146 38.782 83.146 39.046C83.146 39.226 83.062 39.406 82.894 39.586C82.738 39.766 82.552 39.88 82.336 39.928L77.728 40C77.452 40 77.26 39.952 77.152 39.856C77.044 39.748 76.99 39.574 76.99 39.334C77.038 38.998 77.062 38.458 77.062 37.714V36.454L76.99 33.808ZM87.4909 39.982C87.0829 39.982 86.7049 39.844 86.3569 39.568C86.3569 39.568 86.2789 39.502 86.1229 39.37V44.77C86.0509 45.01 85.9249 45.208 85.7449 45.364C85.5649 45.532 85.3729 45.616 85.1689 45.616C84.8569 45.616 84.7009 45.406 84.7009 44.986V32.44C84.7729 32.128 84.8569 31.906 84.9529 31.774C85.0609 31.642 85.2229 31.576 85.4389 31.576C85.6669 31.576 85.8109 31.63 85.8709 31.738C85.9429 31.834 86.0269 32.11 86.1229 32.566C86.1709 32.326 86.3629 32.104 86.6989 31.9C87.0349 31.696 87.4849 31.594 88.0489 31.594C89.2729 31.594 90.1429 32.038 90.6589 32.926C91.1749 33.814 91.4329 34.864 91.4329 36.076C91.4329 37.276 91.0789 38.23 90.3709 38.938C89.6749 39.634 88.7149 39.982 87.4909 39.982ZM86.1229 34.582V37.93C86.1949 37.966 86.2789 38.026 86.3749 38.11C86.7229 38.422 87.1009 38.578 87.5089 38.578C89.1649 38.578 89.9929 37.726 89.9929 36.022C89.9929 34.57 89.6209 33.652 88.8769 33.268C88.5649 33.1 88.1809 33.016 87.7249 33.016C87.2809 33.076 86.9029 33.274 86.5909 33.61C86.2789 33.934 86.1229 34.258 86.1229 34.582ZM93.5341 28.624C93.7501 28.624 93.9541 28.726 94.1461 28.93C94.3381 29.134 94.4341 29.35 94.4341 29.578C94.4341 29.794 94.3261 30.016 94.1101 30.244C93.9061 30.472 93.6901 30.586 93.4621 30.586C93.2341 30.586 93.0241 30.49 92.8321 30.298C92.6521 30.106 92.5621 29.86 92.5621 29.56C92.5621 28.984 92.8741 28.672 93.4981 28.624C93.5101 28.624 93.5221 28.624 93.5341 28.624ZM94.2901 38.056L94.3081 39.316C94.3081 39.544 94.2181 39.736 94.0381 39.892C93.8581 40.036 93.6661 40.108 93.4621 40.108C93.1621 40.108 93.0061 39.958 92.9941 39.658C92.8381 35.83 92.7601 33.712 92.7601 33.304C92.7601 32.896 92.7781 32.398 92.8141 31.81C92.8381 31.594 92.9761 31.486 93.2281 31.486C93.8641 31.486 94.2241 31.744 94.3081 32.26C94.3441 32.524 94.3621 32.734 94.3621 32.89L94.2901 34.024V38.056ZM96.1195 35.788C96.1195 34.984 96.3295 34.252 96.7495 33.592C97.1815 32.932 97.7275 32.44 98.3875 32.116C99.0475 31.78 99.6895 31.612 100.313 31.612C100.938 31.612 101.436 31.69 101.808 31.846C102.192 31.99 102.384 32.188 102.384 32.44C102.384 32.68 102.312 32.926 102.168 33.178C102.036 33.418 101.856 33.538 101.628 33.538C101.544 33.538 101.31 33.472 100.926 33.34C100.554 33.196 100.314 33.124 100.206 33.124C99.5095 33.124 98.9155 33.382 98.4235 33.898C97.9315 34.402 97.6855 35.074 97.6855 35.914C97.6855 36.754 97.8175 37.384 98.0815 37.804C98.3575 38.212 98.8255 38.416 99.4855 38.416C99.7495 38.416 100.2 38.266 100.836 37.966C101.484 37.654 101.886 37.498 102.042 37.498C102.198 37.498 102.324 37.546 102.42 37.642C102.516 37.738 102.564 37.858 102.564 38.002C102.564 38.29 102.378 38.596 102.006 38.92C101.646 39.232 101.196 39.496 100.656 39.712C100.116 39.916 99.6295 40.018 99.1975 40.018C98.2375 40.018 97.4815 39.64 96.9295 38.884C96.3895 38.128 96.1195 37.096 96.1195 35.788ZM103.8 31.594L104.7 31.612C104.904 31.612 105.018 31.606 105.042 31.594V27.904C105.054 27.7 105.156 27.526 105.348 27.382C105.54 27.238 105.72 27.166 105.888 27.166C106.056 27.166 106.188 27.22 106.284 27.328C106.392 27.436 106.44 27.604 106.428 27.832C106.416 28.06 106.41 29.308 106.41 31.576L108.516 31.504C108.876 31.504 109.056 31.714 109.056 32.134C109.056 32.446 108.96 32.68 108.768 32.836C108.588 32.992 108.39 33.076 108.174 33.088C107.97 33.1 107.766 33.106 107.562 33.106L106.464 33.088C106.464 33.58 106.512 34.552 106.608 36.004C106.716 37.456 106.8 38.398 106.86 38.83C106.92 39.25 106.932 39.526 106.896 39.658C106.86 39.778 106.794 39.862 106.698 39.91C106.542 39.982 106.332 40.018 106.068 40.018C105.804 40.018 105.648 39.874 105.6 39.586C105.36 38.014 105.198 35.854 105.114 33.106C105.006 33.118 104.592 33.124 103.872 33.124C103.152 33.124 102.792 32.914 102.792 32.494C102.792 31.894 103.128 31.594 103.8 31.594ZM112.13 31.666C112.766 31.666 113.372 31.852 113.948 32.224C114.524 32.596 114.812 33.058 114.812 33.61C114.812 34.15 114.578 34.678 114.11 35.194C113.642 35.698 113.018 36.004 112.238 36.112C111.902 36.16 111.398 36.184 110.726 36.184C110.858 37.204 111.116 37.876 111.5 38.2C111.62 38.332 111.782 38.398 111.986 38.398C112.73 38.398 113.354 38.164 113.858 37.696C114.362 37.216 114.722 36.976 114.938 36.976C115.034 36.976 115.178 37.066 115.37 37.246C115.562 37.426 115.658 37.594 115.658 37.75C115.658 38.062 115.28 38.512 114.524 39.1C114.188 39.376 113.78 39.61 113.3 39.802C112.832 39.982 112.394 40.072 111.986 40.072C110.942 40.072 110.174 39.4 109.682 38.056C109.37 37.228 109.214 36.316 109.214 35.32C109.214 34.324 109.448 33.466 109.916 32.746C110.384 32.026 111.122 31.666 112.13 31.666ZM112.22 32.908C111.764 32.908 111.374 33.166 111.05 33.682C110.93 33.862 110.816 34.27 110.708 34.906C112.388 34.906 113.228 34.492 113.228 33.664C113.228 33.16 112.892 32.908 112.22 32.908ZM117.159 31.594L118.059 31.612C118.263 31.612 118.377 31.606 118.401 31.594V27.904C118.413 27.7 118.515 27.526 118.707 27.382C118.899 27.238 119.079 27.166 119.247 27.166C119.415 27.166 119.547 27.22 119.643 27.328C119.751 27.436 119.799 27.604 119.787 27.832C119.775 28.06 119.769 29.308 119.769 31.576L121.875 31.504C122.235 31.504 122.415 31.714 122.415 32.134C122.415 32.446 122.319 32.68 122.127 32.836C121.947 32.992 121.749 33.076 121.533 33.088C121.329 33.1 121.125 33.106 120.921 33.106L119.823 33.088C119.823 33.58 119.871 34.552 119.967 36.004C120.075 37.456 120.159 38.398 120.219 38.83C120.279 39.25 120.291 39.526 120.255 39.658C120.219 39.778 120.153 39.862 120.057 39.91C119.901 39.982 119.691 40.018 119.427 40.018C119.163 40.018 119.007 39.874 118.959 39.586C118.719 38.014 118.557 35.854 118.473 33.106C118.365 33.118 117.951 33.124 117.231 33.124C116.511 33.124 116.151 32.914 116.151 32.494C116.151 31.894 116.487 31.594 117.159 31.594ZM122.861 32.296C122.909 32.092 123.011 31.924 123.167 31.792C123.323 31.648 123.479 31.576 123.635 31.576C123.803 31.576 123.929 31.606 124.013 31.666C124.109 31.726 124.163 31.78 124.175 31.828C124.199 31.876 124.223 31.96 124.247 32.08C124.175 33.016 124.139 33.862 124.139 34.618C124.139 35.362 124.229 36.22 124.409 37.192C124.589 38.152 124.787 38.632 125.003 38.632C125.327 38.632 125.735 38.452 126.227 38.092C126.731 37.732 127.091 37.354 127.307 36.958C127.163 35.23 127.091 33.748 127.091 32.512C127.091 32.26 127.169 32.044 127.325 31.864C127.493 31.684 127.691 31.594 127.919 31.594C128.291 31.594 128.477 31.846 128.477 32.35C128.477 33.202 128.537 34.468 128.657 36.148C128.789 37.828 128.921 38.896 129.053 39.352C129.077 39.448 129.089 39.562 129.089 39.694C129.089 39.814 129.005 39.928 128.837 40.036C128.681 40.156 128.471 40.216 128.207 40.216C127.955 40.216 127.787 40.072 127.703 39.784C127.679 39.544 127.619 39.184 127.523 38.704C126.683 39.58 125.837 40.018 124.985 40.018C124.589 40.018 124.235 39.868 123.923 39.568C123.611 39.268 123.365 38.86 123.185 38.344C122.873 37.348 122.717 36.412 122.717 35.536C122.717 34.66 122.765 33.58 122.861 32.296ZM130.41 33.88C130.41 33.172 130.662 32.608 131.166 32.188C131.67 31.768 132.252 31.558 132.912 31.558C133.584 31.558 134.226 31.678 134.838 31.918C135.45 32.158 135.756 32.476 135.756 32.872C135.756 33.076 135.678 33.238 135.522 33.358C135.366 33.478 135.228 33.538 135.108 33.538C135 33.538 134.91 33.538 134.838 33.538C134.778 33.526 134.538 33.412 134.118 33.196C133.71 32.98 133.332 32.872 132.984 32.872C132.636 32.872 132.336 32.962 132.084 33.142C131.844 33.31 131.724 33.562 131.724 33.898C131.724 34.234 131.862 34.498 132.138 34.69C132.426 34.882 132.924 35.05 133.632 35.194C134.34 35.326 134.88 35.518 135.252 35.77C135.636 36.022 135.828 36.49 135.828 37.174C135.828 38.17 135.564 38.878 135.036 39.298C134.52 39.706 133.89 39.91 133.146 39.91C132.402 39.91 131.766 39.808 131.238 39.604C130.722 39.4 130.464 39.094 130.464 38.686C130.464 38.218 130.698 37.984 131.166 37.984C131.286 37.984 131.55 38.068 131.958 38.236C132.366 38.404 132.768 38.488 133.164 38.488C133.572 38.488 133.878 38.362 134.082 38.11C134.298 37.846 134.406 37.546 134.406 37.21C134.406 36.874 134.268 36.634 133.992 36.49C133.716 36.334 133.296 36.208 132.732 36.112C132.168 36.016 131.754 35.914 131.49 35.806C130.77 35.518 130.41 34.876 130.41 33.88Z" fill="white"/>
<g filter="url(#filter0_d_6_796)">
<rect x="30" y="15" width="35" height="35" rx="3" fill="#4B5563"/>
</g>
<path d="M43.494 39V27.228H50.586V28.992H45.582V31.998H49.812V33.762H45.582V37.236H50.766V39H43.494Z" fill="white"/>
<defs>
<filter id="filter0_d_6_796" x="0" y="0" width="95" height="95" filterUnits="userSpaceOnUse" color-interpolation-filters="sRGB">
<feFlood flood-opacity="0" result="BackgroundImageFix"/>
<feColorMatrix in="SourceAlpha" type="matrix" values="0 0 0 0 0 0 0 0 0 0 0 0 0 0 0 0 0 0 127 0" result="hardAlpha"/>
<feOffset dy="15"/>
<feGaussianBlur stdDeviation="15"/>
<feColorMatrix type="matrix" values="0 0 0 0 0 0 0 0 0 0 0 0 0 0 0 0 0 0 0.15 0"/>
<feBlend mode="normal" in2="BackgroundImageFix" result="effect1_dropShadow_6_796"/>
<feBlend mode="normal" in="SourceGraphic" in2="effect1_dropShadow_6_796" result="shape"/>
</filter>
</defs>
</svg>
